<svg width="24" height="25" viewBox="0 0 24 25" fill="none" xmlns="http://www.w3.org/2000/svg">
<path d="M7.91546 24.09C7.86841 24.09 7.82137 24.09 7.77432 24.09C7.445 24.0429 7.20977 23.8547 7.02159 23.5725L4.71634 19.3854L0.529265 17.0801C0.246991 16.939 0.0588073 16.6567 0.0117615 16.3274C-0.0352844 15.9981 0.0588073 15.7158 0.294036 15.4806L2.4111 13.3635C2.64633 13.1283 2.97565 13.0342 3.30497 13.0812L5.70431 13.5047L8.85638 10.3526L1.23495 6.58893C0.952678 6.44779 0.764495 6.16551 0.670403 5.83619C0.576311 5.50687 0.717449 5.17755 0.952678 4.94232L3.30497 2.59003C3.5402 2.3548 3.91656 2.26071 4.24589 2.30776L14.2196 4.89528L17.701 1.41388C18.9242 0.190694 21.794 -0.703177 23.2524 0.755244C23.911 1.41389 24.1463 2.49594 23.911 3.71913C23.7229 4.70709 23.2054 5.64801 22.5938 6.2596L19.1124 9.741L21.6999 19.7147C21.794 20.044 21.6999 20.4204 21.4176 20.6556L19.0653 23.0079C18.8301 23.2431 18.5008 23.3372 18.1714 23.2902C17.8421 23.2431 17.5599 23.055 17.4187 22.7256L13.6551 15.1042L10.503 18.2563L10.9264 20.6556C10.9734 20.9849 10.8793 21.3143 10.6441 21.5495L8.52705 23.6666C8.43296 23.9959 8.19773 24.09 7.91546 24.09ZM2.64633 15.951L5.93954 17.7388C6.12772 17.8329 6.22181 17.974 6.3159 18.1152L8.10364 21.4084L8.90342 20.6086L8.52705 18.2092C8.48001 17.8799 8.5741 17.5506 8.80933 17.3154L13.3257 12.799C13.561 12.5637 13.8903 12.4697 14.2196 12.5167C14.5489 12.5637 14.8312 12.7519 14.9723 13.0812L18.736 20.7027L19.6769 19.7618L17.0894 9.78804C16.9953 9.45872 17.0894 9.08235 17.3717 8.84713L21.2294 4.98937C21.9351 4.28368 22.3115 2.68412 21.8881 2.26071C21.4647 1.8373 19.8651 2.26071 19.1594 2.91935L15.3017 6.77711C15.0664 7.01234 14.6901 7.10643 14.3607 7.05938L4.33998 4.47186L3.39906 5.41278L11.0205 9.17645C11.3028 9.31758 11.4909 9.59986 11.585 9.92918C11.6791 10.2585 11.538 10.5878 11.3028 10.823L6.78636 15.3394C6.55113 15.5747 6.22181 15.6688 5.89249 15.6217L3.49315 15.1983L2.64633 15.951Z" fill="#2CA7EC"/>
</svg>
