<svg width="13" height="12" viewBox="0 0 13 12" fill="none" xmlns="http://www.w3.org/2000/svg">
<path d="M0.567528 4.15346C0.492195 4.15373 0.417638 4.13854 0.348649 4.10888C0.279748 4.08055 0.217219 4.0392 0.164636 3.98717C0.112053 3.93514 0.0704479 3.87346 0.0421997 3.80566C0.0139516 3.73786 -0.000385532 3.66526 7.88224e-06 3.59203C0.000401296 3.51879 0.0155176 3.44635 0.0444926 3.37884C0.651074 1.98439 1.70757 0.823482 3.05194 0.0741807C3.11708 0.0375892 3.18894 0.0139327 3.26341 0.00456176C3.33787 -0.0048092 3.41349 0.000289035 3.48595 0.0195652C3.55841 0.0388414 3.62628 0.0719181 3.68569 0.116907C3.74511 0.161895 3.7949 0.217915 3.83223 0.281767C3.86956 0.345619 3.8937 0.416053 3.90326 0.489048C3.91282 0.562042 3.90762 0.636168 3.88795 0.707192C3.86829 0.778217 3.83454 0.844748 3.78865 0.90299C3.74275 0.961231 3.6856 1.01004 3.62046 1.04663C2.49248 1.67206 1.6063 2.64454 1.09909 3.81352C1.05501 3.91557 0.980893 4.00242 0.886208 4.06297C0.791523 4.12352 0.68057 4.15503 0.567528 4.15346Z" fill="#FBB700"/>
<path d="M9.85714 12C9.75841 11.9989 9.66166 11.9727 9.57643 11.9238C9.4912 11.8749 9.42042 11.8052 9.37105 11.7213L8.36478 10.1052C8.28751 9.97813 8.26491 9.82613 8.30196 9.68269C8.33901 9.53925 8.43267 9.41612 8.56234 9.34037C8.69201 9.26462 8.84707 9.24247 8.9934 9.27879C9.13973 9.3151 9.26535 9.40691 9.34263 9.53402L10.3517 11.1501C10.3906 11.2127 10.4165 11.2821 10.428 11.3545C10.4395 11.4269 10.4363 11.5008 10.4186 11.572C10.4009 11.6431 10.3691 11.7102 10.3249 11.7693C10.2808 11.8284 10.2252 11.8784 10.1613 11.9164C10.07 11.9719 9.96454 12.0008 9.85714 12Z" fill="#FBB700"/>
<path d="M12.4325 4.15346C12.3194 4.15503 12.2085 4.12352 12.1138 4.06297C12.0191 4.00242 11.945 3.91557 11.9009 3.81352C11.3944 2.64497 10.5093 1.67254 9.38236 1.04663C9.2508 0.972734 9.15459 0.850633 9.11487 0.707193C9.07516 0.563753 9.0952 0.410724 9.17059 0.281769C9.24598 0.152813 9.37054 0.0584965 9.51687 0.0195665C9.6632 -0.0193635 9.81932 0.000282231 9.95088 0.074182C11.2942 0.823957 12.3496 1.98481 12.9555 3.37884C12.9845 3.44635 12.9996 3.51879 13 3.59203C13.0004 3.66527 12.986 3.73786 12.9578 3.80566C12.9295 3.87346 12.8879 3.93514 12.8353 3.98717C12.7828 4.0392 12.7202 4.08056 12.6513 4.10888C12.5823 4.13831 12.5078 4.15348 12.4325 4.15346Z" fill="#FBB700"/>
<path d="M6.50004 6.61392C6.34926 6.61392 6.20465 6.55521 6.09803 6.4507C5.99142 6.34619 5.93152 6.20445 5.93152 6.05665V4.30679C5.93152 4.15899 5.99142 4.01724 6.09803 3.91273C6.20465 3.80822 6.34926 3.74951 6.50004 3.74951C6.65082 3.74951 6.79542 3.80822 6.90204 3.91273C7.00865 4.01724 7.06855 4.15899 7.06855 4.30679V6.05665C7.06855 6.20445 7.00865 6.34619 6.90204 6.4507C6.79542 6.55521 6.65082 6.61392 6.50004 6.61392Z" fill="#FBB700"/>
<path d="M8.28518 6.61407H6.50004C6.34926 6.61407 6.20465 6.55536 6.09803 6.45085C5.99142 6.34634 5.93152 6.20459 5.93152 6.05679C5.93152 5.90899 5.99142 5.76724 6.09803 5.66273C6.20465 5.55822 6.34926 5.49951 6.50004 5.49951H8.28518C8.43596 5.49951 8.58056 5.55822 8.68718 5.66273C8.7938 5.76724 8.85369 5.90899 8.85369 6.05679C8.85369 6.20459 8.7938 6.34634 8.68718 6.45085C8.58056 6.55536 8.43596 6.61407 8.28518 6.61407Z" fill="#FBB700"/>
<path d="M3.14291 11.9999C3.04228 11.9972 2.94418 11.9683 2.85865 11.9163C2.79478 11.8783 2.73918 11.8283 2.69503 11.7692C2.65088 11.7101 2.61905 11.643 2.60136 11.5719C2.58367 11.5007 2.58047 11.4268 2.59194 11.3544C2.60341 11.282 2.62932 11.2126 2.6682 11.15L3.65742 9.53392C3.69582 9.47032 3.74674 9.41485 3.80723 9.37072C3.86771 9.3266 3.93655 9.29471 4.00972 9.2769C4.0829 9.2591 4.15896 9.25575 4.23347 9.26703C4.30798 9.27832 4.37946 9.30402 4.44374 9.34264C4.50802 9.38126 4.56383 9.43203 4.6079 9.49199C4.65198 9.55195 4.68345 9.61991 4.70048 9.6919C4.71751 9.7639 4.71976 9.8385 4.7071 9.91135C4.69444 9.98421 4.66712 10.0539 4.62674 10.1163L3.61762 11.7324C3.56786 11.8125 3.49827 11.8791 3.41528 11.9258C3.3323 11.9726 3.23861 11.9981 3.14291 11.9999Z" fill="#FBB700"/>
<path d="M6.42597 11.0828C5.43706 11.0828 4.47036 10.7895 3.64811 10.2401C2.82587 9.69071 2.18501 8.90981 1.80657 7.99618C1.42813 7.08255 1.32911 6.07722 1.52204 5.10731C1.71497 4.13741 2.19117 3.24649 2.89043 2.54723C3.58969 1.84797 4.48061 1.37177 5.45051 1.17884C6.42042 0.985913 7.42575 1.08493 8.33938 1.46337C9.25301 1.84181 10.0339 2.48267 10.5833 3.30491C11.1327 4.12716 11.426 5.09386 11.426 6.08276C11.4245 7.40839 10.8972 8.6793 9.95986 9.61666C9.0225 10.554 7.75159 11.0813 6.42597 11.0828ZM6.42597 2.20321C5.65866 2.20321 4.90859 2.43075 4.2706 2.85704C3.63261 3.28333 3.13536 3.88923 2.84173 4.59812C2.54809 5.30702 2.47127 6.08707 2.62096 6.83963C2.77065 7.59219 3.14014 8.28346 3.68271 8.82602C4.22527 9.36859 4.91654 9.73808 5.6691 9.88777C6.42166 10.0375 7.20171 9.96064 7.91061 9.667C8.6195 9.37337 9.2254 8.87612 9.65169 8.23813C10.078 7.60014 10.3055 6.85007 10.3055 6.08276C10.3048 5.05407 9.8958 4.06772 9.1684 3.34033C8.44101 2.61293 7.45466 2.20396 6.42597 2.20321Z" fill="#FBB700"/>
</svg>
