<svg width="16" height="18" viewBox="0 0 16 18" fill="none" xmlns="http://www.w3.org/2000/svg">
<path d="M9.46824 7.94869C10.3043 8.63072 10.7223 8.9717 10.7223 9.55496C10.7223 10.1382 10.3043 10.4792 9.46824 11.1612C9.23747 11.3495 9.00858 11.5268 8.79819 11.6745C8.61362 11.8041 8.40463 11.9381 8.18825 12.0697C7.35416 12.5769 6.93712 12.8305 6.56309 12.5497C6.18905 12.2689 6.15506 11.6811 6.08707 10.5056C6.06784 10.1731 6.05566 9.84717 6.05566 9.55496C6.05566 9.26275 6.06784 8.93686 6.08707 8.60436C6.15506 7.42882 6.18905 6.84099 6.56309 6.5602C6.93712 6.27942 7.35416 6.53303 8.18825 7.04024C8.40463 7.17182 8.61362 7.30586 8.79819 7.43544C9.00858 7.58314 9.23747 7.76039 9.46824 7.94869Z" stroke="#FAA604" stroke-width="1.5"/>
<path d="M1.38892 2.94444L4.50004 1" stroke="#FAA604" stroke-width="1.5" stroke-linecap="round" stroke-linejoin="round"/>
<path d="M14.6111 2.94444L11.5 1" stroke="#FAA604" stroke-width="1.5" stroke-linecap="round" stroke-linejoin="round"/>
<path d="M4.5 3.49165C5.52961 2.89605 6.72499 2.55518 8 2.55518C11.866 2.55518 15 5.68918 15 9.55518C15 13.4212 11.866 16.5552 8 16.5552C4.13401 16.5552 1 13.4212 1 9.55518C1 8.28016 1.34088 7.08478 1.93648 6.05518" stroke="#FAA604" stroke-width="1.5" stroke-linecap="round"/>
</svg>
