<svg width="18" height="18" viewBox="0 0 18 18" fill="none" xmlns="http://www.w3.org/2000/svg">
<g clip-path="url(#clip0_134_1780)">
<path d="M16.5682 13.143C16.23 14.1742 15.7785 15.0697 15.2145 15.8812L15.237 15.8468C14.3065 17.2603 13.38 17.967 12.4575 17.967C11.9032 17.928 11.388 17.8043 10.9095 17.6085L10.9425 17.6205C10.461 17.4202 9.90224 17.295 9.31724 17.2747H9.30899C8.74874 17.2965 8.22374 17.4255 7.74674 17.6423L7.77299 17.6318C7.35599 17.8335 6.86999 17.9655 6.35624 17.9993L6.34499 18C5.24899 18 4.16349 17.0662 3.08849 15.1987C2.13674 13.6447 1.55249 11.775 1.49849 9.77175V9.75675C1.49474 9.6765 1.49249 9.582 1.49249 9.48675C1.49249 8.06775 1.95299 6.756 2.73299 5.6925L2.72024 5.7105C3.41024 4.761 4.51649 4.1505 5.76599 4.1505H5.79374H5.79224C6.48374 4.17375 7.13924 4.29075 7.75799 4.4895L7.70699 4.47525C8.14049 4.626 8.64599 4.74075 9.16949 4.79625L9.20024 4.79925C9.76949 4.749 10.2945 4.6185 10.7835 4.41825L10.7475 4.431C11.301 4.22175 11.9407 4.089 12.6075 4.0635H12.6187H12.6712C13.5135 4.0635 14.2942 4.32675 14.9355 4.77525L14.9227 4.767C15.3517 5.079 15.7222 5.4345 16.0387 5.835L16.0477 5.847C15.5827 6.222 15.177 6.64125 14.8275 7.1055L14.8147 7.1235C14.3745 7.74075 14.1112 8.511 14.1112 9.342V9.36375V9.4095C14.1112 10.2952 14.391 11.1158 14.8665 11.7878L14.8575 11.775C15.255 12.4065 15.8445 12.8857 16.5435 13.1355L16.5667 13.143H16.5682ZM12.501 0.4545C12.486 0.9885 12.372 1.49175 12.177 1.953L12.1875 1.926C11.9452 2.5095 11.6055 3.00675 11.1825 3.42L11.1817 3.42075C10.8645 3.75975 10.4737 4.026 10.0342 4.194L10.0132 4.20075C9.68549 4.29075 9.30149 4.356 8.90699 4.383L8.88824 4.38375C8.88824 4.37775 8.88824 4.37025 8.88824 4.36275C8.88824 3.33375 9.20324 2.3775 9.74249 1.587L9.73124 1.60425C10.3867 0.76875 11.3302 0.186 12.4102 0.00375L12.4357 0C12.4455 0.03225 12.4552 0.07275 12.462 0.114L12.4627 0.12C12.4702 0.16725 12.48 0.20775 12.492 0.2475L12.4897 0.24C12.4897 0.269 12.4915 0.305 12.495 0.348C12.4985 0.391 12.5002 0.4265 12.5002 0.4545H12.501Z" fill="black"/>
</g>
<defs>
<clipPath id="clip0_134_1780">
<rect width="18" height="18" fill="white"/>
</clipPath>
</defs>
</svg>
