<svg width="18" height="21" viewBox="0 0 18 21" fill="none" xmlns="http://www.w3.org/2000/svg">
<path d="M6.42884 1.87881C7.20812 1.48281 8.07991 1.26123 9 1.26123C12.3132 1.26123 14.9992 4.13433 14.9992 7.67848V8.32396C14.9992 9.09865 15.2136 9.85589 15.6153 10.5005L16.5996 12.0799C17.4988 13.5226 16.8124 15.4836 15.2485 15.9398C11.1576 17.1333 6.84243 17.1333 2.75143 15.9398C1.1876 15.4836 0.501174 13.5226 1.40032 12.0799L2.38471 10.5005C2.78642 9.85589 3.00077 9.09865 3.00077 8.32396V7.67848C3.00077 6.69423 3.20792 5.76174 3.57812 4.92817" stroke="black" stroke-width="1.5" stroke-linecap="round"/>
<path d="M5 16.835C5.58225 18.4361 7.1533 19.5833 9 19.5833C9.21733 19.5833 9.43084 19.5674 9.63929 19.5367M13 16.835C12.7626 17.4878 12.3609 18.0651 11.8431 18.5199" stroke="black" stroke-width="1.5" stroke-linecap="round"/>
</svg>
