<svg width="8" height="10" viewBox="0 0 8 10" fill="none" xmlns="http://www.w3.org/2000/svg">
<path d="M7.8105 4.9912L7.80396 4.96769C6.84105 2.25268 3.97193 0.32517 3.84992 0.244851L3.47958 0L3.50356 0.41135C3.50356 0.428997 3.57107 2.02351 1.85221 3.34965C-0.0147779 4.79137 -0.00390632 5.98042 0.000470535 6.61902L0.00268236 6.70716C0.00268236 8.44859 1.42396 9.75064 3.45736 9.9653C3.34667 9.94966 3.2336 9.92937 3.12013 9.89818C2.46438 9.716 2.08098 9.30269 2.00691 8.70717L1.98949 8.58965C1.93066 8.12932 1.85442 7.55928 2.97417 6.47797C3.39244 6.07445 3.75626 5.63957 4.0569 5.18707L4.20722 4.95986L4.40545 5.15573C4.99802 5.73749 5.45114 6.32516 5.75613 6.89715C6.03715 7.40255 6.05461 8.20179 6.03279 8.3722C5.92605 9.24194 5.22674 9.89033 4.28998 9.98434C4.22891 9.9906 4.13752 9.99668 4.02563 9.99892C4.03546 9.99898 4.04483 10 4.05471 10C6.26808 10 8 8.3996 8 6.3565C8.00002 5.86682 7.81702 5.02645 7.8105 4.9912Z" fill="#A2A2A2"/>
</svg>
