<svg width="20" height="20" viewBox="0 0 20 20" fill="none" xmlns="http://www.w3.org/2000/svg">
<path d="M11.8 18.5501H8.2C4.80588 18.5501 3.10883 18.5501 2.05441 17.4957C1 16.4413 1 14.7442 1 11.3501V9.5501C1 6.15598 1 4.45893 2.05441 3.40451C3.10883 2.3501 4.80588 2.3501 8.2 2.3501H11.8C15.1941 2.3501 16.8912 2.3501 17.9456 3.40451C19 4.45893 19 6.15598 19 9.5501V11.3501C19 14.7442 19 16.4413 17.9456 17.4957C17.3577 18.0835 16.5701 18.3436 15.4 18.4587" stroke="black" stroke-width="1.5" stroke-linecap="round"/>
<path d="M5.5 2.35V1" stroke="black" stroke-width="1.5" stroke-linecap="round"/>
<path d="M14.5 2.35V1" stroke="black" stroke-width="1.5" stroke-linecap="round"/>
<path d="M18.55 6.8501H14.1625H8.875M1 6.8501H4.4875" stroke="black" stroke-width="1.5" stroke-linecap="round"/>
<path d="M15.6 14.1499C15.6 14.7022 15.1523 15.1499 14.6 15.1499C14.0477 15.1499 13.6 14.7022 13.6 14.1499C13.6 13.5976 14.0477 13.1499 14.6 13.1499C15.1523 13.1499 15.6 13.5976 15.6 14.1499Z" fill="black"/>
<path d="M15.6 10.55C15.6 11.1023 15.1523 11.55 14.6 11.55C14.0477 11.55 13.6 11.1023 13.6 10.55C13.6 9.99775 14.0477 9.55005 14.6 9.55005C15.1523 9.55005 15.6 9.99775 15.6 10.55Z" fill="black"/>
<path d="M11.1 14.1499C11.1 14.7022 10.6523 15.1499 10.1 15.1499C9.54768 15.1499 9.09998 14.7022 9.09998 14.1499C9.09998 13.5976 9.54768 13.1499 10.1 13.1499C10.6523 13.1499 11.1 13.5976 11.1 14.1499Z" fill="black"/>
<path d="M11.1 10.55C11.1 11.1023 10.6523 11.55 10.1 11.55C9.54768 11.55 9.09998 11.1023 9.09998 10.55C9.09998 9.99775 9.54768 9.55005 10.1 9.55005C10.6523 9.55005 11.1 9.99775 11.1 10.55Z" fill="black"/>
<path d="M6.59998 14.1499C6.59998 14.7022 6.15226 15.1499 5.59998 15.1499C5.0477 15.1499 4.59998 14.7022 4.59998 14.1499C4.59998 13.5976 5.0477 13.1499 5.59998 13.1499C6.15226 13.1499 6.59998 13.5976 6.59998 14.1499Z" fill="black"/>
<path d="M6.59998 10.55C6.59998 11.1023 6.15226 11.55 5.59998 11.55C5.0477 11.55 4.59998 11.1023 4.59998 10.55C4.59998 9.99775 5.0477 9.55005 5.59998 9.55005C6.15226 9.55005 6.59998 9.99775 6.59998 10.55Z" fill="black"/>
</svg>
