<svg width="18" height="18" viewBox="0 0 18 18" fill="none" xmlns="http://www.w3.org/2000/svg">
<path d="M3.13953 11.1633H3.76744C3.76744 10.9138 3.61963 10.6878 3.39093 10.5879L3.13953 11.1633ZM14.8605 11.1633L14.6091 10.5879C14.3803 10.6878 14.2326 10.9138 14.2326 11.1633H14.8605ZM12.1395 4.81395C12.1395 5.16073 12.4207 5.44186 12.7674 5.44186C13.1142 5.44186 13.3953 5.16073 13.3953 4.81395H12.1395ZM4.60465 4.81395C4.60465 5.16073 4.88578 5.44186 5.23256 5.44186C5.57934 5.44186 5.86047 5.16073 5.86047 4.81395H4.60465ZM4.81395 2.51163C2.15528 2.51163 0 4.66691 0 7.32558H1.25581C1.25581 5.36048 2.84885 3.76744 4.81395 3.76744V2.51163ZM13.186 3.76744C15.1511 3.76744 16.7442 5.36048 16.7442 7.32558H18C18 4.66691 15.8447 2.51163 13.186 2.51163V3.76744ZM11.5116 16.7442H6.48837V18H11.5116V16.7442ZM6.48837 16.7442C5.68129 16.7442 5.13915 16.7428 4.73474 16.6885C4.34841 16.6365 4.18306 16.5468 4.07396 16.4377L3.18597 17.3256C3.56729 17.707 4.04182 17.8624 4.56741 17.9331C5.07495 18.0013 5.71679 18 6.48837 18V16.7442ZM2.51163 14.0233C2.51163 14.7948 2.5103 15.4367 2.57853 15.9442C2.6492 16.4698 2.80464 16.9444 3.18597 17.3256L4.07396 16.4377C3.96486 16.3286 3.87509 16.1632 3.82315 15.7769C3.76877 15.3725 3.76744 14.8303 3.76744 14.0233H2.51163ZM14.2326 14.0233C14.2326 14.8303 14.2312 15.3725 14.1769 15.7769C14.1249 16.1632 14.0351 16.3286 13.9261 16.4377L14.814 17.3256C15.1953 16.9444 15.3508 16.4698 15.4215 15.9442C15.4897 15.4367 15.4884 14.7948 15.4884 14.0233H14.2326ZM11.5116 18C12.2832 18 12.9251 18.0013 13.4326 17.9331C13.9582 17.8624 14.4327 17.707 14.814 17.3256L13.9261 16.4377C13.817 16.5468 13.6516 16.6365 13.2652 16.6885C12.8609 16.7428 12.3187 16.7442 11.5116 16.7442V18ZM4.81395 3.76744C4.99286 3.76744 5.16831 3.78059 5.33947 3.8059L5.5231 2.56358C5.29134 2.52933 5.05452 2.51163 4.81395 2.51163V3.76744ZM9 0C7.06562 0 5.42463 1.2492 4.83663 2.98308L6.02592 3.38639C6.44635 2.14662 7.61994 1.25581 9 1.25581V0ZM4.83663 2.98308C4.68604 3.42713 4.60465 3.90238 4.60465 4.39535H5.86047C5.86047 4.04134 5.91882 3.70224 6.02592 3.38639L4.83663 2.98308ZM13.186 2.51163C12.9455 2.51163 12.7087 2.52933 12.4769 2.56358L12.6605 3.8059C12.8317 3.78059 13.0071 3.76744 13.186 3.76744V2.51163ZM9 1.25581C10.3801 1.25581 11.5537 2.14662 11.9741 3.38639L13.1634 2.98308C12.5754 1.2492 10.9344 0 9 0V1.25581ZM11.9741 3.38639C12.0812 3.70224 12.1395 4.04134 12.1395 4.39535H13.3953C13.3953 3.90238 13.314 3.42713 13.1634 2.98308L11.9741 3.38639ZM3.76744 14.0233V11.1633H2.51163V14.0233H3.76744ZM3.39093 10.5879C2.13295 10.0383 1.25581 8.78367 1.25581 7.32558H0C0 9.30056 1.18926 10.9964 2.88814 11.7387L3.39093 10.5879ZM14.2326 11.1633V14.0233H15.4884V11.1633H14.2326ZM16.7442 7.32558C16.7442 8.78367 15.867 10.0383 14.6091 10.5879L15.1119 11.7387C16.8107 10.9964 18 9.30056 18 7.32558H16.7442ZM12.1395 4.39535V4.81395H13.3953V4.39535H12.1395ZM4.60465 4.39535V4.81395H5.86047V4.39535H4.60465Z" fill="#1C274C"/>
<path d="M3.13965 14.0149H14.8606" stroke="#1C274C" stroke-width="1.2" stroke-linecap="round" stroke-linejoin="round"/>
</svg>
