<svg width="10" height="10" viewBox="0 0 10 10" fill="none" xmlns="http://www.w3.org/2000/svg">
<path d="M10 5C10 7.7614 7.7614 10 5 10C2.23857 10 0 7.7614 0 5C0 2.23857 2.23857 0 5 0C7.7614 0 10 2.23857 10 5Z" fill="#A2A2A2"/>
<path fill-rule="evenodd" clip-rule="evenodd" d="M5 2.625C5.2071 2.625 5.375 2.7929 5.375 3V4.84465L6.51515 5.98485C6.6616 6.1313 6.6616 6.3687 6.51515 6.51515C6.3687 6.6616 6.1313 6.6616 5.98485 6.51515L4.73485 5.26515C4.6645 5.19485 4.625 5.09945 4.625 5V3C4.625 2.7929 4.7929 2.625 5 2.625Z" fill="white"/>
</svg>
