<svg width="3" height="14" viewBox="0 0 3 14" fill="none" xmlns="http://www.w3.org/2000/svg">
<path fill-rule="evenodd" clip-rule="evenodd" d="M1.5 13.1987C2.3284 13.1987 3 12.4884 3 11.6122C3 10.736 2.3284 10.0257 1.5 10.0257C0.6716 10.0257 0 10.736 0 11.6122C0 12.4884 0.6716 13.1987 1.5 13.1987Z" fill="#8D8D8D"/>
<path fill-rule="evenodd" clip-rule="evenodd" d="M1.5 8.26294C2.3284 8.26294 3 7.55259 3 6.6764C3 5.80021 2.3284 5.08986 1.5 5.08986C0.6716 5.08986 0 5.80021 0 6.6764C0 7.55259 0.6716 8.26294 1.5 8.26294Z" fill="#8D8D8D"/>
<path fill-rule="evenodd" clip-rule="evenodd" d="M1.5 3.3269C2.3284 3.3269 3 2.61656 3 1.74037C3 0.864174 2.3284 0.153827 1.5 0.153827C0.6716 0.153827 0 0.864174 0 1.74037C0 2.61656 0.6716 3.3269 1.5 3.3269Z" fill="#8D8D8D"/>
</svg>
