<svg width="24" height="24" viewBox="0 0 24 24" fill="none" xmlns="http://www.w3.org/2000/svg">
<path d="M20.126 10.4609C19.9348 10.4609 19.7513 10.3849 19.6161 10.2497C19.4808 10.1144 19.4048 9.93096 19.4048 9.73968V6.3803C19.4043 5.93117 19.2256 5.50059 18.908 5.18301C18.5904 4.86542 18.1599 4.68676 17.7107 4.68619H14.0766C13.8853 4.68619 13.7018 4.61019 13.5666 4.47494C13.4313 4.33969 13.3553 4.15626 13.3553 3.96498C13.3553 3.77371 13.4313 3.59025 13.5666 3.455C13.7018 3.31975 13.8853 3.24377 14.0766 3.24377H17.7107C18.5422 3.24492 19.3394 3.57574 19.9273 4.16371C20.5153 4.75167 20.8461 5.5488 20.8472 6.3803V9.73968C20.8472 9.93096 20.7713 10.1144 20.636 10.2497C20.5007 10.3849 20.3173 10.4609 20.126 10.4609Z" fill="#0893A6"/>
<path d="M6.59185 23.7203H3.13653C2.30496 23.7193 1.50774 23.3886 0.919733 22.8006C0.331726 22.2126 0.000954399 21.4153 0 20.5838V17.0087C0 16.8175 0.0759946 16.634 0.211247 16.4988C0.3465 16.3635 0.529931 16.2875 0.721207 16.2875C0.912483 16.2875 1.09594 16.3635 1.23119 16.4988C1.36644 16.634 1.44241 16.8175 1.44241 17.0087V20.5838C1.44299 21.0329 1.62167 21.4635 1.93926 21.781C2.25684 22.0986 2.6874 22.2773 3.13653 22.2779H6.59185C6.78312 22.2779 6.96655 22.3539 7.10181 22.4891C7.23706 22.6244 7.31305 22.8078 7.31305 22.9991C7.31305 23.1904 7.23706 23.3738 7.10181 23.5091C6.96655 23.6443 6.78312 23.7203 6.59185 23.7203Z" fill="#0893A6"/>
<path d="M0.721207 10.2279C0.529931 10.2279 0.3465 10.152 0.211247 10.0167C0.0759946 9.88146 0 9.69801 0 9.50673V6.3803C0.0011448 5.5488 0.331965 4.75167 0.919931 4.16371C1.5079 3.57574 2.30502 3.24492 3.13653 3.24377H6.77142C6.9627 3.24377 7.14613 3.31975 7.28138 3.455C7.41663 3.59025 7.49263 3.77371 7.49263 3.96498C7.49263 4.15626 7.41663 4.33969 7.28138 4.47494C7.14613 4.61019 6.9627 4.68619 6.77142 4.68619H3.13653C2.6874 4.68676 2.25684 4.86542 1.93926 5.18301C1.62167 5.50059 1.44299 5.93117 1.44241 6.3803V9.50673C1.44241 9.69801 1.36644 9.88146 1.23119 10.0167C1.09594 10.152 0.912483 10.2279 0.721207 10.2279Z" fill="#0893A6"/>
<path d="M17.7107 23.7202H13.8695C13.6782 23.7202 13.4948 23.6443 13.3595 23.509C13.2243 23.3737 13.1483 23.1903 13.1483 22.999C13.1483 22.8078 13.2243 22.6243 13.3595 22.4891C13.4948 22.3538 13.6782 22.2778 13.8695 22.2778H17.7071C18.1562 22.2773 18.5868 22.0986 18.9044 21.781C19.2219 21.4634 19.4006 21.0328 19.4012 20.5837V17.021C19.4012 16.8297 19.4772 16.6462 19.6124 16.511C19.7477 16.3757 19.9311 16.2997 20.1224 16.2997C20.3137 16.2997 20.4971 16.3757 20.6324 16.511C20.7676 16.6462 20.8436 16.8297 20.8436 17.021V20.5837C20.8424 21.4146 20.5121 22.2112 19.9249 22.799C19.3377 23.3869 18.5415 23.7181 17.7107 23.7202Z" fill="#0893A6"/>
<path d="M14.0758 4.68617C13.8985 4.68603 13.7275 4.62056 13.5954 4.50229C13.4632 4.38402 13.3794 4.22123 13.3597 4.04502C13.2731 3.3273 12.9266 2.66615 12.3857 2.18656C11.8448 1.70696 11.1469 1.44215 10.424 1.44215C9.70107 1.44215 9.00322 1.70696 8.4623 2.18656C7.92138 2.66615 7.57488 3.3273 7.48831 4.04502C7.47794 4.13916 7.44914 4.23033 7.40353 4.31333C7.35792 4.39634 7.29641 4.46957 7.2225 4.52881C7.1486 4.58804 7.06377 4.63213 6.97283 4.65857C6.88188 4.68502 6.78661 4.69329 6.69247 4.68292C6.59833 4.67255 6.50714 4.64374 6.42413 4.59814C6.34112 4.55253 6.26792 4.49101 6.20868 4.41711C6.14945 4.34321 6.10536 4.25836 6.07891 4.16741C6.05247 4.07647 6.0442 3.98122 6.05457 3.88708C6.18011 2.81634 6.69444 1.82896 7.49991 1.1124C8.30539 0.395851 9.34591 0 10.424 0C11.5021 0 12.5426 0.395851 13.3481 1.1124C14.1536 1.82896 14.6679 2.81634 14.7934 3.88708C14.8039 3.98127 14.7958 4.07663 14.7695 4.16767C14.7431 4.25872 14.6991 4.34369 14.6399 4.4177C14.5806 4.49172 14.5074 4.55332 14.4244 4.59902C14.3413 4.64471 14.2501 4.67359 14.1559 4.684C14.1285 4.68472 14.1018 4.68617 14.0758 4.68617Z" fill="#0893A6"/>
<path d="M1.34363 17.7898C1.09269 17.7881 0.842405 17.7639 0.595748 17.7177C0.410863 17.6808 0.247753 17.573 0.141384 17.4173C0.0350155 17.2617 -0.00616343 17.0706 0.0266486 16.8849C0.0594605 16.6993 0.163675 16.5338 0.316954 16.4241C0.470233 16.3143 0.660394 16.2689 0.846722 16.2977C1.01062 16.3283 1.1769 16.3445 1.34363 16.346C2.13054 16.346 2.88521 16.0334 3.44164 15.4769C3.99807 14.9205 4.31069 14.1658 4.31069 13.3789C4.31069 12.592 3.99807 11.8373 3.44164 11.2809C2.88521 10.7245 2.13054 10.4119 1.34363 10.4119C1.1904 10.4073 1.03716 10.4209 0.88711 10.4523C0.794909 10.474 0.699329 10.4774 0.605829 10.4622C0.512328 10.447 0.422742 10.4135 0.342177 10.3637C0.179468 10.263 0.0633933 10.1019 0.0194955 9.91569C-0.0244024 9.72949 0.00745577 9.53345 0.108084 9.37074C0.208712 9.20803 0.369858 9.09198 0.556065 9.04808C0.814706 8.99179 1.07897 8.96541 1.34363 8.96946C2.51309 8.96946 3.63465 9.43402 4.46158 10.261C5.28852 11.0879 5.7531 12.2094 5.7531 13.3789C5.7531 14.5484 5.28852 15.67 4.46158 16.4969C3.63465 17.3238 2.51309 17.7884 1.34363 17.7884V17.7898Z" fill="#0893A6"/>
<path d="M20.1253 17.7422C19.943 17.7418 19.7675 17.6724 19.6343 17.5479C19.5011 17.4234 19.42 17.2531 19.4073 17.0712C19.3946 16.8894 19.4513 16.7094 19.5659 16.5676C19.6805 16.4258 19.8445 16.3327 20.025 16.307C20.7288 16.2055 21.3725 15.8537 21.838 15.3162C22.3036 14.7787 22.5598 14.0914 22.5598 13.3803C22.5598 12.6692 22.3036 11.982 21.838 11.4445C21.3725 10.9069 20.7288 10.5552 20.025 10.4537C19.9297 10.4423 19.8377 10.412 19.7542 10.3645C19.6708 10.3171 19.5976 10.2535 19.5391 10.1774C19.4806 10.1013 19.4378 10.0143 19.4133 9.92153C19.3888 9.82873 19.3831 9.73197 19.3965 9.63693C19.4099 9.54189 19.4421 9.45047 19.4913 9.36804C19.5405 9.28561 19.6056 9.21383 19.6829 9.1569C19.7602 9.09997 19.848 9.05904 19.9413 9.03651C20.0346 9.01398 20.1315 9.0103 20.2263 9.02568C21.2739 9.1762 22.2321 9.69936 22.9253 10.4992C23.6184 11.299 24 12.3219 24 13.3803C24 14.4387 23.6184 15.4616 22.9253 16.2615C22.2321 17.0613 21.2739 17.5845 20.2263 17.735C20.1928 17.7398 20.1591 17.7423 20.1253 17.7422Z" fill="#0893A6"/>
<path d="M13.8739 23.7203C13.8254 23.7205 13.7771 23.7156 13.7296 23.7058C13.5422 23.6681 13.3775 23.5575 13.2716 23.3983C13.1657 23.2391 13.1273 23.0444 13.1649 22.857C13.1897 22.7185 13.201 22.5779 13.1988 22.4372C13.1988 21.6503 12.8862 20.8956 12.3298 20.3392C11.7734 19.7828 11.0187 19.4702 10.2318 19.4702C9.44486 19.4702 8.69017 19.7828 8.13374 20.3392C7.57731 20.8956 7.26472 21.6503 7.26472 22.4372C7.26232 22.5779 7.27344 22.7185 7.29791 22.857C7.31657 22.9498 7.31674 23.0455 7.29844 23.1384C7.28014 23.2313 7.24372 23.3198 7.19125 23.3986C7.13878 23.4775 7.07129 23.5452 6.99264 23.598C6.91398 23.6508 6.8257 23.6875 6.73284 23.7062C6.63997 23.7249 6.54433 23.725 6.4514 23.7067C6.35847 23.6884 6.27004 23.652 6.19118 23.5995C6.11232 23.5471 6.04459 23.4796 5.99182 23.4009C5.93904 23.3223 5.90228 23.234 5.88362 23.1411C5.84024 22.9091 5.8197 22.6733 5.8223 22.4372C5.8223 21.2678 6.28689 20.1462 7.11382 19.3193C7.94075 18.4923 9.06231 18.0278 10.2318 18.0278C11.4012 18.0278 12.5228 18.4923 13.3497 19.3193C14.1767 20.1462 14.6412 21.2678 14.6412 22.4372C14.644 22.6734 14.6232 22.9091 14.5792 23.1411C14.5464 23.3042 14.4583 23.4509 14.3298 23.5564C14.2012 23.662 14.0402 23.7199 13.8739 23.7203Z" fill="#0893A6"/>
</svg>
