<svg width="13" height="12" viewBox="0 0 13 12" fill="none" xmlns="http://www.w3.org/2000/svg">
<path d="M4.81669 5.65215V11.4358C4.81669 11.5138 4.83682 11.5905 4.87516 11.6586C4.9135 11.7267 4.96878 11.784 5.03575 11.825C5.10271 11.866 5.17914 11.8893 5.25777 11.8928C5.33639 11.8962 5.4146 11.8797 5.48496 11.8447L8.25407 10.4725C8.33063 10.4344 8.39501 10.3761 8.44 10.3038C8.48499 10.2316 8.50882 10.1484 8.50882 10.0635V5.65215L12.5582 0.747664C12.5966 0.70117 12.6254 0.647631 12.643 0.590102C12.6605 0.532573 12.6665 0.472182 12.6605 0.412376C12.6545 0.35257 12.6366 0.294521 12.608 0.241544C12.5794 0.188566 12.5405 0.141698 12.4936 0.103613C12.4467 0.0655293 12.3926 0.0369758 12.3346 0.0195831C12.2765 0.00219043 12.2156 -0.00370084 12.1553 0.00224575C12.0949 0.00819233 12.0364 0.0258603 11.9829 0.0542409C11.9295 0.0826215 11.8822 0.121159 11.8438 0.167653L7.69009 5.1993C7.62256 5.28112 7.5857 5.3836 7.58579 5.48931V9.78084L5.73972 10.6957V5.48931C5.73981 5.3836 5.70295 5.28112 5.63542 5.1993L2.09835 0.915081H9.43186C9.55426 0.915081 9.67165 0.866888 9.7582 0.781105C9.84475 0.695322 9.89338 0.578974 9.89338 0.457658C9.89338 0.336342 9.84475 0.219995 9.7582 0.134212C9.67165 0.0484287 9.55426 0.000236028 9.43186 0.000236028H1.12455C1.03712 0.000178217 0.951467 0.024736 0.877571 0.07105C0.803676 0.117364 0.744574 0.183529 0.707147 0.261842C0.669719 0.340155 0.655505 0.427394 0.66616 0.513403C0.676815 0.599412 0.7119 0.680651 0.767331 0.747664L4.81669 5.65215Z" fill="#8D8D8D"/>
</svg>
