<svg width="24" height="22" viewBox="0 0 24 22" fill="none" xmlns="http://www.w3.org/2000/svg">
<path d="M23.0366 9.58406C22.9018 9.20009 22.6944 8.84561 22.4258 8.5399C22.4331 8.4445 22.4372 8.34677 22.4372 8.24685C22.4372 8.2261 22.4372 8.20786 22.4372 8.19179C22.4286 7.62421 22.304 7.06439 22.071 6.54673C21.8381 6.02908 21.5018 5.56453 21.0827 5.18165L23.5683 2.65585L23.5764 2.64731C23.8608 2.34256 24.0128 1.93753 23.9992 1.52092C23.9855 1.10431 23.8073 0.710081 23.5036 0.424597L23.0453 0.912285L23.5026 0.423258C23.2122 0.151398 22.8293 9.68487e-05 22.4315 5.61181e-06C22.1736 5.61181e-06 21.8583 -0.00384204 21.6815 0.189961L18.9475 3.16646C18.598 2.80712 18.1799 2.52156 17.718 2.32669C17.2561 2.13181 16.7599 2.03158 16.2585 2.03193C16.2418 2.03193 16.2197 2.03193 16.1903 2.03193C15.4423 2.045 14.7155 2.28203 14.1036 2.71241C13.4348 2.34906 12.6856 2.15917 11.9244 2.16012C11.903 2.16012 11.8784 2.16012 11.8496 2.16012C10.7371 2.17821 9.66928 2.60111 8.84607 3.34968C8.02286 4.09825 7.50067 5.12117 7.37724 6.22697C6.81418 5.90907 6.17837 5.74245 5.53176 5.74331C5.51636 5.74331 5.49578 5.74331 5.47017 5.74331C4.48333 5.75916 3.54223 6.16215 2.84976 6.86542C2.15729 7.5687 1.7689 8.51592 1.76833 9.50289C1.76833 9.51795 1.76833 9.53853 1.76833 9.56498V9.56765H1.20985C0.819899 9.56765 0.480826 9.5844 0.173888 9.96096C0.00836826 10.1643 0 10.7042 0 10.7042C0 10.7179 8.17208e-07 10.7303 0.000837619 10.7415C0.000837619 10.7502 0 10.7598 0 10.7696C0.000249675 10.8064 0.00309597 10.8431 0.00852941 10.8794C0.112125 14.2506 1.60951 16.7873 3.82084 18.3973C4.71822 19.0449 5.70542 19.558 6.75115 19.9202C6.81727 20.3728 7.04401 20.7865 7.38993 21.0858C7.73586 21.385 8.17789 21.5499 8.63529 21.5502H15.2651C15.7225 21.5499 16.1646 21.3851 16.5106 21.0858C16.8565 20.7865 17.0832 20.3727 17.1492 19.9201C18.1949 19.5578 19.1819 19.0447 20.0792 18.3971C22.2904 16.7869 23.7876 14.2501 23.8913 10.8806C23.8913 10.8806 23.9148 10.25 23.7543 9.97803C23.6345 9.70858 23.3384 9.61536 23.0366 9.58406ZM21.0981 8.20953C21.0981 8.22124 21.0981 8.2353 21.0981 8.24685C21.097 8.39231 21.085 8.53748 21.0621 8.68115L21.0087 9.03646L21.275 9.27779C21.3714 9.365 21.4584 9.46216 21.5344 9.56765H6.01777C6.18449 9.33098 6.40483 9.1371 6.6608 9.00185C6.91676 8.8666 7.20108 8.79381 7.49055 8.78943H7.49891H7.50377H7.5205C7.87245 8.79108 8.21677 8.89214 8.51378 9.08098L9.02708 9.41085L9.40298 8.93035C9.42574 8.90123 9.45151 8.87478 9.47578 8.84667C9.66035 8.63319 9.88795 8.46111 10.1437 8.34171C10.3994 8.2223 10.6774 8.15826 10.9596 8.15379H10.968C10.9693 8.15379 10.9783 8.15379 10.9929 8.15379C11.4257 8.15363 11.8469 8.29374 12.1934 8.55312L12.6655 8.90458L13.0747 8.48132C13.2587 8.28995 13.4788 8.13696 13.7223 8.03119C13.9658 7.92541 14.2278 7.86896 14.4932 7.8651H14.5065H14.5185C14.6217 7.86596 14.7247 7.87453 14.8266 7.89071L15.3956 7.97589L15.5648 7.42512C15.7394 6.85781 16.0879 6.35977 16.5611 6.00145C17.0343 5.64314 17.6082 5.44269 18.2016 5.4285L18.3469 5.43235C18.4506 5.43569 18.554 5.44452 18.6568 5.4588C18.8345 5.48348 19.0094 5.525 19.1792 5.58281C19.1932 5.58766 19.2078 5.59118 19.2218 5.5962C19.2965 5.62264 19.3691 5.65343 19.4407 5.68607C19.4575 5.6936 19.4742 5.70013 19.4896 5.708C19.5612 5.74236 19.6313 5.77985 19.6998 5.82046C19.7475 5.84825 19.7967 5.87402 19.8426 5.90414C19.9013 5.94347 19.9574 5.98598 20.0128 6.02949C20.345 6.28876 20.6149 6.61915 20.8027 6.9964C20.9905 7.37365 21.0915 7.78817 21.0981 8.20953ZM22.2372 1.43345L22.2666 1.40533C22.3107 1.36255 22.3699 1.33882 22.4313 1.33923C22.4889 1.33875 22.5445 1.36051 22.5864 1.39997C22.6313 1.44205 22.6579 1.49996 22.6607 1.56138C22.6635 1.6228 22.6422 1.68289 22.6013 1.72884L19.9376 4.43605C19.8697 4.40626 19.8008 4.37837 19.7309 4.35237C19.7202 4.32627 19.7097 4.30016 19.6975 4.27422L22.2372 1.43345ZM11.8712 3.49918H11.8786H11.9243C12.5853 3.49818 13.2305 3.70115 13.7719 4.08041L14.2149 4.39004L14.6109 4.02184C15.0475 3.61288 15.6207 3.38115 16.2189 3.37181H16.2306C16.2323 3.37181 16.2413 3.37181 16.2584 3.37181C16.5807 3.37169 16.8997 3.43612 17.1967 3.5613C17.4937 3.68649 17.7626 3.86988 17.9875 4.10067C17.2381 4.15112 16.5162 4.4033 15.8984 4.8305C15.2805 5.2577 14.7897 5.84403 14.4778 6.52739C14.4723 6.52739 14.4663 6.52739 14.4596 6.52739C13.7616 6.54025 13.0852 6.77123 12.5251 7.18796C12.0516 6.94309 11.5264 6.81535 10.9934 6.81542C10.9785 6.81542 10.9579 6.81542 10.9306 6.81542C10.1527 6.82965 9.40422 7.11508 8.81436 7.62243C8.73593 7.35022 8.69373 7.06886 8.68884 6.78563C8.68884 6.76738 8.68884 6.75216 8.68884 6.73274C8.68926 5.88411 9.02307 5.0696 9.61833 4.46475C10.2136 3.8599 11.0227 3.51314 11.8712 3.49918ZM3.10754 9.54389V9.53887V9.53234C3.10754 9.5295 3.10754 9.51996 3.10754 9.50289C3.10821 8.86723 3.35855 8.25727 3.80464 7.80443C4.25072 7.35158 4.85685 7.09208 5.49243 7.08186H5.49862H5.53209C6.02361 7.08112 6.50357 7.23087 6.90746 7.51097C6.36615 7.61799 5.86194 7.86387 5.44429 8.22448C5.02664 8.5851 4.70989 9.04806 4.52509 9.56799H3.10855L3.10754 9.54389ZM19.2879 17.3176C18.4206 17.9423 17.4597 18.4254 16.441 18.7489L16.3253 18.7849C16.3026 18.7921 16.2793 18.7989 16.2564 18.8058C16.1083 18.852 15.9585 18.8955 15.8068 18.9363L15.7364 18.9546C15.5945 18.9919 15.4513 19.027 15.3069 19.0598L15.2156 19.0804C15.0773 19.1105 14.9382 19.1388 14.7982 19.1651C14.7624 19.172 14.7264 19.1788 14.6902 19.185C14.5547 19.2095 14.4184 19.2314 14.2814 19.252C14.2409 19.2578 14.2007 19.2645 14.1604 19.27C14.0265 19.289 13.8916 19.3057 13.7558 19.3202C13.7125 19.3253 13.6695 19.3308 13.6261 19.3353C13.4922 19.3494 13.3559 19.3609 13.2201 19.3713C13.1761 19.3746 13.1324 19.3788 13.0884 19.3818C12.9475 19.3915 12.8059 19.3986 12.664 19.4039C12.6253 19.4056 12.5868 19.4083 12.548 19.4096C12.3679 19.4157 12.1872 19.4189 12.0059 19.419C11.9977 19.419 11.9807 19.4178 11.9509 19.4178H11.939C11.9164 19.4178 11.8997 19.419 11.8926 19.419C11.711 19.419 11.5301 19.4159 11.3499 19.4096C11.3141 19.4083 11.2786 19.4059 11.2428 19.4043C11.0978 19.3984 10.9529 19.3915 10.8088 19.3818C10.768 19.3788 10.7276 19.375 10.687 19.3716C10.5476 19.3612 10.4086 19.3494 10.2706 19.335C10.2302 19.3308 10.1904 19.3256 10.1504 19.3213C10.0118 19.3057 9.87375 19.2885 9.73618 19.2694C9.69886 19.2642 9.66154 19.2582 9.62405 19.2526C9.48381 19.2314 9.34406 19.2088 9.20565 19.184L9.10825 19.1661C8.96365 19.1388 8.82006 19.1099 8.67746 19.0781C8.65219 19.0726 8.62725 19.067 8.60131 19.0613C8.44968 19.027 8.29906 18.9901 8.14944 18.9507C8.13421 18.9465 8.11865 18.9427 8.10342 18.9387C7.93952 18.8946 7.7774 18.8476 7.61707 18.7977L7.44871 18.7452C6.43408 18.4218 5.47699 17.9399 4.61295 17.3174C2.72312 15.9203 1.47561 13.8708 1.35026 10.9064H22.5505C22.4251 13.871 21.1778 15.9205 19.2879 17.3176Z" fill="#3D00EC"/>
</svg>
