<svg width="18" height="18" viewBox="0 0 18 18" fill="none" xmlns="http://www.w3.org/2000/svg">
<g clip-path="url(#clip0_134_1772)">
<path fill-rule="evenodd" clip-rule="evenodd" d="M3.87272 8.99996C3.87272 8.42836 3.96766 7.88036 4.1371 7.36636L1.17129 5.10156C0.593271 6.27516 0.267609 7.59756 0.267609 8.99996C0.267609 10.4012 0.59287 11.7228 1.17009 12.8956L4.13429 10.6264C3.96646 10.1148 3.87272 9.56876 3.87272 8.99996Z" fill="#FBBC05"/>
<path fill-rule="evenodd" clip-rule="evenodd" d="M9.08011 3.79995C10.3219 3.79995 11.4435 4.23995 12.3247 4.95995L14.8884 2.39995C13.3261 1.03995 11.3233 0.199951 9.08011 0.199951C5.59757 0.199951 2.60453 2.19155 1.1713 5.10155L4.1371 7.36635C4.82047 5.29195 6.76843 3.79995 9.08011 3.79995Z" fill="#EB4335"/>
<path fill-rule="evenodd" clip-rule="evenodd" d="M9.08011 14.1999C6.76843 14.1999 4.82047 12.7079 4.1371 10.6335L1.1713 12.8979C2.60453 15.8083 5.59757 17.7999 9.08011 17.7999C11.2296 17.7999 13.2817 17.0367 14.8219 15.6067L12.0067 13.4303C11.2123 13.9307 10.2121 14.1999 9.08011 14.1999Z" fill="#34A853"/>
<path fill-rule="evenodd" clip-rule="evenodd" d="M17.492 8.9999C17.492 8.4799 17.4119 7.9199 17.2918 7.3999H9.08011V10.7999H13.8068C13.5705 11.9591 12.9272 12.8503 12.0067 13.4303L14.8219 15.6067C16.4397 14.1051 17.492 11.8683 17.492 8.9999Z" fill="#4285F4"/>
</g>
<defs>
<clipPath id="clip0_134_1772">
<rect width="18" height="18" fill="white"/>
</clipPath>
</defs>
</svg>
