<svg width="10" height="9" viewBox="0 0 10 9" fill="none" xmlns="http://www.w3.org/2000/svg">
<path d="M3.05313 7.48094C1.64909 6.39919 0 5.12864 0 2.92609C0 0.494625 2.75008 -1.22972 5 1.10786L6 2.10718C6.14645 2.2536 6.3839 2.25356 6.53035 2.10708C6.67675 1.96061 6.6767 1.72318 6.53025 1.57676L5.56425 0.611105C7.68425 -0.94091 10 0.69487 10 2.92609C10 5.12864 8.3509 6.39919 6.94685 7.48094C6.80095 7.59339 6.65765 7.70379 6.51915 7.81299C6 8.22224 5.5 8.60754 5 8.60754C4.5 8.60754 4 8.22224 3.48087 7.81299C3.34236 7.70379 3.19907 7.59339 3.05313 7.48094Z" fill="#F85F5F"/>
</svg>
