<svg width="10" height="9" viewBox="0 0 10 9" fill="none" xmlns="http://www.w3.org/2000/svg">
<path d="M5 1.3797L4.74865 1.62161C4.75023 1.62323 4.75181 1.62483 4.7534 1.62641L5 1.3797ZM5.68363 2.55631C5.81986 2.69252 6.04074 2.69248 6.17693 2.55622C6.31316 2.41997 6.31312 2.19909 6.17684 2.06289L5.68363 2.55631ZM3.80281 7.34308C3.09786 6.78736 2.32701 6.24467 1.71548 5.55606C1.11592 4.8809 0.697674 4.09313 0.697674 3.07108H0C0 4.31085 0.516512 5.25667 1.19382 6.01932C1.85918 6.76853 2.70733 7.36788 3.37089 7.89099L3.80281 7.34308ZM0.697674 3.07108C0.697674 2.07068 1.26296 1.23174 2.03459 0.879033C2.78422 0.536377 3.79147 0.627122 4.74865 1.62161L5.25135 1.1378C4.11558 -0.0422086 2.79725 -0.236688 1.74454 0.244508C0.713819 0.715652 0 1.80966 0 3.07108H0.697674ZM3.37089 7.89099C3.60914 8.07881 3.8649 8.27908 4.12409 8.43053C4.38321 8.58192 4.67888 8.70499 5 8.70499V8.00732C4.856 8.00732 4.68656 7.95118 4.47609 7.82815C4.26572 7.70522 4.04748 7.53597 3.80281 7.34308L3.37089 7.89099ZM6.62912 7.89099C7.29265 7.36788 8.14084 6.76853 8.80619 6.01932C9.48349 5.25667 10 4.31085 10 3.07108H9.30233C9.30233 4.09313 8.88409 4.8809 8.28451 5.55606C7.67298 6.24467 6.90214 6.78736 6.19721 7.34308L6.62912 7.89099ZM10 3.07108C10 1.80966 9.28619 0.715652 8.25544 0.244508C7.20274 -0.236688 5.88442 -0.0422086 4.74865 1.1378L5.25135 1.62161C6.20851 0.627122 7.21577 0.536377 7.9654 0.879033C8.73702 1.23174 9.30233 2.07068 9.30233 3.07108H10ZM6.19721 7.34308C5.95251 7.53597 5.73428 7.70522 5.52391 7.82815C5.31344 7.95118 5.144 8.00732 5 8.00732V8.70499C5.32112 8.70499 5.61679 8.58192 5.87591 8.43053C6.13512 8.27908 6.39084 8.07881 6.62912 7.89099L6.19721 7.34308ZM4.7534 1.62641L5.68363 2.55631L6.17684 2.06289L5.2466 1.133L4.7534 1.62641Z" fill="#A2A2A2"/>
</svg>
