<svg width="24" height="24" viewBox="0 0 24 24" fill="none" xmlns="http://www.w3.org/2000/svg">
<path d="M22.3158 5.46593L18.5349 1.68499C17.6047 0.75485 16.0967 0.75485 15.1665 1.68499L1.69324 15.1583C0.7631 16.0884 0.763099 17.5965 1.69324 18.5266L5.47418 22.3076C6.40432 23.2377 7.91237 23.2377 8.84251 22.3076L22.3158 8.83426C23.246 7.90412 23.246 6.39607 22.3158 5.46593Z" stroke="#FF6464" stroke-width="1.5" stroke-linecap="round" stroke-linejoin="round"/>
<path d="M18.5258 22.3067L22.3067 18.5258C23.2369 17.5956 23.2369 16.0876 22.3067 15.1575L8.83343 1.68414C7.9033 0.754006 6.39525 0.754004 5.46511 1.68414L1.68416 5.46509C0.754023 6.39523 0.754024 7.90328 1.68416 8.83342L15.1575 22.3067C16.0876 23.2369 17.5957 23.2369 18.5258 22.3067Z" stroke="#FF6464" stroke-width="1.5" stroke-linecap="round" stroke-linejoin="round"/>
</svg>
