<svg width="24" height="24" viewBox="0 0 24 24" fill="none" xmlns="http://www.w3.org/2000/svg">
<path d="M2.48294 15.7988C1.43035 13.2575 1.4303 10.4585 2.48294 7.91728C3.36732 5.78226 4.90585 4.04425 6.88213 2.91883V6.3659H8.58122V0.710571H2.9259V2.40967H4.60307C0.46861 5.64724 -1.1922 11.3661 0.913206 16.449C1.71558 18.3861 3.01272 20.0827 4.66447 21.3557C6.26581 22.5897 8.16874 23.4059 10.1674 23.7161L10.428 22.037C6.84039 21.4804 3.87037 19.1483 2.48294 15.7988Z" fill="#15A334"/>
<path d="M23.0803 16.449C24.3066 13.4885 24.3066 10.2276 23.0803 7.26709C22.2779 5.33 20.9808 3.63334 19.329 2.3605C17.7276 1.12639 15.8248 0.310141 13.8261 0L13.5655 1.67905C17.153 2.23573 20.1231 4.56779 21.5105 7.91733C22.5631 10.4586 22.5631 13.2576 21.5105 15.7988C20.6261 17.9338 19.0876 19.6719 17.1113 20.7973V17.3502H15.4122V23.0055H21.0675V21.3064H19.3978C21.0092 20.0481 22.2766 18.3892 23.0803 16.449Z" fill="#15A334"/>
<path d="M13.5856 9.30017H15.2847C15.2847 7.78096 14.2487 6.49961 12.8463 6.12411V5.41168H11.1472V6.12411C9.74477 6.49961 8.70883 7.7809 8.70883 9.30017C8.70883 10.8544 9.52451 11.968 11.0056 12.4359L11.1472 12.4806V15.7575C10.7033 15.4754 10.4079 14.9796 10.4079 14.4159H8.70883C8.70883 15.9351 9.74477 17.2164 11.1472 17.5919V18.3044H12.8463V17.5919C14.2487 17.2164 15.2847 15.9351 15.2847 14.4159C15.2847 12.8616 14.469 11.7481 12.9879 11.2802L12.8463 11.2354V7.95857C13.2902 8.24067 13.5856 8.73641 13.5856 9.30017ZM11.1471 10.6649C10.6336 10.3982 10.4079 9.97262 10.4079 9.30017C10.4079 8.73641 10.7033 8.24062 11.1471 7.95857V10.6649ZM13.5856 14.4159C13.5856 14.9796 13.2902 15.4754 12.8463 15.7575V13.0512C13.3599 13.3179 13.5856 13.7435 13.5856 14.4159Z" fill="#15A334"/>
</svg>
