<svg width="10" height="12" viewBox="0 0 10 12" fill="none" xmlns="http://www.w3.org/2000/svg">
<path d="M4.99999 0.555556C3.76803 0.55986 2.58104 1.01883 1.66666 1.84444V0.555556C1.66666 0.408213 1.60812 0.266905 1.50394 0.162718C1.39975 0.0585316 1.25844 0 1.1111 0C0.963758 0 0.82245 0.0585316 0.718263 0.162718C0.614077 0.266905 0.555545 0.408213 0.555545 0.555556V3.33333C0.555096 3.47329 0.607488 3.60826 0.702247 3.71126C0.797006 3.81426 0.927148 3.87769 1.06666 3.88889H3.88888C4.03622 3.88889 4.17753 3.83036 4.28172 3.72617C4.3859 3.62198 4.44443 3.48068 4.44443 3.33333C4.44443 3.18599 4.3859 3.04468 4.28172 2.9405C4.17753 2.83631 4.03622 2.77778 3.88888 2.77778H2.28332C2.83054 2.24354 3.52313 1.8825 4.27446 1.73982C5.0258 1.59714 5.80252 1.67916 6.50748 1.97561C7.21245 2.27207 7.81436 2.76979 8.23793 3.40654C8.6615 4.04329 8.88792 4.7908 8.88888 5.55556C8.88888 5.7029 8.94741 5.84421 9.0516 5.94839C9.15578 6.05258 9.29709 6.11111 9.44443 6.11111C9.59178 6.11111 9.73308 6.05258 9.83727 5.94839C9.94146 5.84421 9.99999 5.7029 9.99999 5.55556C9.99999 4.22947 9.4732 2.9577 8.53552 2.02002C7.59784 1.08234 6.32607 0.555556 4.99999 0.555556Z" fill="white" fill-opacity="0.8"/>
<path d="M8.93333 7.22222H6.11111C5.96377 7.22222 5.82246 7.28075 5.71827 7.38494C5.61409 7.48913 5.55556 7.63044 5.55556 7.77778C5.55556 7.92512 5.61409 8.06643 5.71827 8.17062C5.82246 8.2748 5.96377 8.33333 6.11111 8.33333H7.71667C7.16945 8.86757 6.47686 9.22861 5.72553 9.37129C4.97419 9.51397 4.19747 9.43195 3.4925 9.1355C2.78754 8.83905 2.18563 8.34132 1.76206 7.70457C1.33849 7.06782 1.11207 6.32032 1.11111 5.55556C1.11111 5.40821 1.05258 5.26691 0.948393 5.16272C0.844206 5.05853 0.702898 5 0.555556 5C0.408213 5 0.266905 5.05853 0.162718 5.16272C0.0585316 5.26691 0 5.40821 0 5.55556C0.00301637 6.51943 0.284572 7.4619 0.81077 8.26948C1.33697 9.07706 2.08538 9.71533 2.96589 10.1075C3.84641 10.4996 4.8215 10.6288 5.77377 10.4797C6.72604 10.3305 7.6149 9.90926 8.33333 9.26667V10.5556C8.33333 10.7029 8.39186 10.8442 8.49605 10.9484C8.60024 11.0526 8.74155 11.1111 8.88889 11.1111C9.03623 11.1111 9.17754 11.0526 9.28173 10.9484C9.38591 10.8442 9.44444 10.7029 9.44444 10.5556V7.77778C9.44489 7.63782 9.3925 7.50285 9.29774 7.39985C9.20298 7.29686 9.07284 7.23342 8.93333 7.22222Z" fill="white" fill-opacity="0.8"/>
</svg>
