<svg width="24" height="18" viewBox="0 0 24 18" fill="none" xmlns="http://www.w3.org/2000/svg">
<path fill-rule="evenodd" clip-rule="evenodd" d="M12 0C12.497 0 12.9 0.402948 12.9 0.9V5.32716L15.6363 8.06364C15.9878 8.41512 15.9878 8.98488 15.6363 9.33636C15.2849 9.68784 14.7151 9.68784 14.3636 9.33636L11.3636 6.33636C11.1948 6.16764 11.1 5.93868 11.1 5.7V0.9C11.1 0.402948 11.5029 0 12 0Z" fill="white"/>
<path d="M14.9564 7.68374C14.576 7.46365 14.1088 7.46212 13.7283 7.67965L9.05181 10.3519C8.66883 10.5709 8.43188 10.9784 8.43188 11.4201V16.2386C8.43188 16.9183 8.98287 17.4693 9.66255 17.4693H14.3391C15.0187 17.4693 15.5697 16.9183 15.5697 16.2386V8.74844C15.5692 8.30979 15.3353 7.90383 14.9564 7.68374Z" fill="#8D8D8D"/>
<path d="M6.58691 12.4666C6.20699 12.2445 5.73924 12.244 5.3588 12.4625L0.620503 15.1705C0.135898 15.4468 -0.102064 16.0151 0.0414281 16.5544C0.184409 17.0941 0.672589 17.4694 1.23073 17.4694H5.96954C6.64921 17.4694 7.2002 16.9184 7.2002 16.2388V13.5303C7.20071 13.0927 6.96683 12.6862 6.58691 12.4666Z" fill="#8D8D8D"/>
<path d="M23.3872 2.86648C23.0073 2.64588 22.5395 2.64486 22.1591 2.8629L17.4208 5.57036C17.0373 5.78943 16.8004 6.19743 16.8004 6.63915V16.2388C16.8004 16.9185 17.3513 17.4695 18.031 17.4695H22.7693C23.449 17.4695 24 16.9185 24 16.2388V3.93118C24.0005 3.49253 23.7666 3.08657 23.3872 2.86648Z" fill="#8D8D8D"/>
</svg>
