<svg width="24" height="24" viewBox="0 0 24 24" fill="none" xmlns="http://www.w3.org/2000/svg">
<path d="M13.5 5.25H16.5L20.25 16.5" stroke="#09B138" stroke-width="1.5" stroke-miterlimit="10" stroke-linecap="round" stroke-linejoin="round"/>
<path d="M20.25 19.5C21.9069 19.5 23.25 18.1569 23.25 16.5C23.25 14.8431 21.9069 13.5 20.25 13.5C18.5931 13.5 17.25 14.8431 17.25 16.5C17.25 18.1569 18.5931 19.5 20.25 19.5Z" stroke="#09B138" stroke-width="1.5" stroke-miterlimit="10" stroke-linecap="round" stroke-linejoin="round"/>
<path d="M3.75 19.5C5.40685 19.5 6.75 18.1569 6.75 16.5C6.75 14.8431 5.40685 13.5 3.75 13.5C2.09315 13.5 0.75 14.8431 0.75 16.5C0.75 18.1569 2.09315 19.5 3.75 19.5Z" stroke="#09B138" stroke-width="1.5" stroke-miterlimit="10" stroke-linecap="round" stroke-linejoin="round"/>
<path d="M3.75 10.5C7.05 10.5 9.75 13.2 9.75 16.5H14.25C14.25 13.2 16.95 10.5 20.25 10.5C20.85 10.5 21.525 10.575 22.05 10.8" stroke="#09B138" stroke-width="1.5" stroke-miterlimit="10" stroke-linecap="round" stroke-linejoin="round"/>
<path d="M17.25 8.25H12.75L12.45 8.7C11.25 10.65 9 11.7 6.75 11.25" stroke="#09B138" stroke-width="1.5" stroke-miterlimit="10" stroke-linecap="round" stroke-linejoin="round"/>
</svg>
