<svg width="12" height="12" viewBox="0 0 12 12" fill="none" xmlns="http://www.w3.org/2000/svg">
<path fill-rule="evenodd" clip-rule="evenodd" d="M0.923077 6C0.923077 3.19609 3.19609 0.923077 6 0.923077C8.80388 0.923077 11.0769 3.19609 11.0769 6C11.0769 8.80388 8.80388 11.0769 6 11.0769C3.19609 11.0769 0.923077 8.80388 0.923077 6ZM6 0C2.68629 0 0 2.68629 0 6C0 9.31372 2.68629 12 6 12C9.31372 12 12 9.31372 12 6C12 2.68629 9.31372 0 6 0ZM4.76923 3.69231C5.02412 3.69231 5.23077 3.89895 5.23077 4.15385V7.84615C5.23077 8.10105 5.02412 8.30769 4.76923 8.30769C4.51433 8.30769 4.30769 8.10105 4.30769 7.84615V4.15385C4.30769 3.89895 4.51433 3.69231 4.76923 3.69231ZM7.23077 3.69231C7.48566 3.69231 7.69231 3.89895 7.69231 4.15385V7.84615C7.69231 8.10105 7.48566 8.30769 7.23077 8.30769C6.97588 8.30769 6.76923 8.10105 6.76923 7.84615V4.15385C6.76923 3.89895 6.97588 3.69231 7.23077 3.69231Z" fill="#FBB700"/>
</svg>
