<svg width="25" height="25" viewBox="0 0 25 25" fill="none" xmlns="http://www.w3.org/2000/svg">
<path fill-rule="evenodd" clip-rule="evenodd" d="M10.9375 23.4375C10.9375 23.8519 11.1021 24.2493 11.3951 24.5424C11.6882 24.8354 12.0856 25 12.5 25C12.9144 25 13.3118 24.8354 13.6049 24.5424C13.8979 24.2493 14.0625 23.8519 14.0625 23.4375V14.0625H23.4375C23.8519 14.0625 24.2493 13.8979 24.5424 13.6049C24.8354 13.3118 25 12.9144 25 12.5C25 12.0856 24.8354 11.6882 24.5424 11.3951C24.2493 11.1021 23.8519 10.9375 23.4375 10.9375H14.0625V1.5625C14.0625 1.1481 13.8979 0.750671 13.6049 0.457646C13.3118 0.16462 12.9144 0 12.5 0C12.0856 0 11.6882 0.16462 11.3951 0.457646C11.1021 0.750671 10.9375 1.1481 10.9375 1.5625V10.9375H1.5625C1.1481 10.9375 0.750671 11.1021 0.457646 11.3951C0.16462 11.6882 0 12.0856 0 12.5C0 12.9144 0.16462 13.3118 0.457646 13.6049C0.750671 13.8979 1.1481 14.0625 1.5625 14.0625H10.9375V23.4375Z" fill="white"/>
</svg>
