<svg width="24" height="24" viewBox="0 0 24 24" fill="none" xmlns="http://www.w3.org/2000/svg">
<path d="M23.8523 18.1352C22.8543 14.486 20.4482 11.1911 16.9846 8.73048C17.4938 8.5043 17.9027 8.15385 18.1535 7.72865C18.4043 7.30344 18.4844 6.82496 18.3823 6.36079C18.2803 5.89662 18.0014 5.47022 17.585 5.14182C17.1685 4.81342 16.6356 4.59962 16.0615 4.53061L17.5385 0.990718C17.5842 0.877933 17.5964 0.757928 17.5739 0.64058C17.5515 0.523233 17.495 0.411898 17.4092 0.315739C17.3199 0.213501 17.2004 0.1311 17.0617 0.0760721C16.923 0.0210444 16.7696 -0.00485299 16.6154 0.000748851H7.38462C7.23817 0.00129905 7.09399 0.0301514 6.96398 0.0849223C6.83397 0.139693 6.72186 0.218811 6.63692 0.315739C6.55114 0.411898 6.4947 0.523233 6.47223 0.64058C6.44976 0.757928 6.46192 0.877933 6.50769 0.990718L7.96615 4.50061C7.39206 4.56962 6.85917 4.78342 6.44273 5.11183C6.0263 5.44023 5.74737 5.86662 5.64535 6.33079C5.54334 6.79496 5.62338 7.27344 5.87418 7.69865C6.12498 8.12385 6.53387 8.4743 7.04308 8.70048C3.55573 11.1686 1.13549 14.4809 0.138462 18.1502C0.046804 18.4927 0.00038734 18.8421 0 19.1926C0 20.4676 0.623389 21.6904 1.73303 22.592C2.84267 23.4935 4.34766 24 5.91692 24H18.0831C19.6523 24 21.1573 23.4935 22.267 22.592C23.3766 21.6904 24 20.4676 24 19.1926C24 18.8368 23.9505 18.482 23.8523 18.1352ZM15.3323 1.5007L14.1046 4.50061H9.89538L8.66769 1.5007H15.3323ZM8.30769 6.00056H15.6923C15.9371 6.00056 16.1719 6.07958 16.345 6.22022C16.5181 6.36087 16.6154 6.55163 16.6154 6.75054C16.6154 6.94944 16.5181 7.1402 16.345 7.28085C16.1719 7.4215 15.9371 7.50051 15.6923 7.50051H8.30769C8.06288 7.50051 7.82809 7.4215 7.65498 7.28085C7.48187 7.1402 7.38462 6.94944 7.38462 6.75054C7.38462 6.55163 7.48187 6.36087 7.65498 6.22022C7.82809 6.07958 8.06288 6.00056 8.30769 6.00056ZM18.0831 22.5H5.91692C4.83804 22.4981 3.80404 22.149 3.04115 21.5291C2.27826 20.9093 1.84859 20.0692 1.84615 19.1926C1.84771 18.9405 1.88174 18.6891 1.94769 18.4427C2.98951 14.6557 5.68102 11.3022 9.52615 9.00047H14.4738C18.3292 11.3121 21.0245 14.6794 22.0615 18.4802C22.1202 18.7147 22.1511 18.9533 22.1538 19.1926C22.1514 20.0692 21.7217 20.9093 20.9589 21.5291C20.196 22.149 19.162 22.4981 18.0831 22.5Z" fill="#FA8EEF"/>
<path d="M12 13.5004H13.8462C14.091 13.5004 14.3258 13.4213 14.4989 13.2807C14.672 13.14 14.7692 12.9493 14.7692 12.7504C14.7692 12.5515 14.672 12.3607 14.4989 12.2201C14.3258 12.0794 14.091 12.0004 13.8462 12.0004H12.9231C12.9231 11.8015 12.8258 11.6107 12.6527 11.4701C12.4796 11.3294 12.2448 11.2504 12 11.2504C11.7552 11.2504 11.5204 11.3294 11.3473 11.4701C11.1742 11.6107 11.0769 11.8015 11.0769 12.0004V12.1354C10.4664 12.3154 9.95321 12.664 9.62699 13.1202C9.30076 13.5765 9.18228 14.1114 9.29225 14.6314C9.40223 15.1514 9.73367 15.6235 10.2286 15.9651C10.7236 16.3068 11.3506 16.4962 12 16.5003C12.2448 16.5003 12.4796 16.5793 12.6527 16.7199C12.8258 16.8606 12.9231 17.0513 12.9231 17.2502C12.9231 17.4491 12.8258 17.6399 12.6527 17.7806C12.4796 17.9212 12.2448 18.0002 12 18.0002H10.1539C9.90904 18.0002 9.67425 18.0792 9.50114 18.2199C9.32803 18.3605 9.23077 18.5513 9.23077 18.7502C9.23077 18.9491 9.32803 19.1399 9.50114 19.2805C9.67425 19.4212 9.90904 19.5002 10.1539 19.5002H11.0769C11.0769 19.6991 11.1742 19.8898 11.3473 20.0305C11.5204 20.1711 11.7552 20.2501 12 20.2501C12.2448 20.2501 12.4796 20.1711 12.6527 20.0305C12.8258 19.8898 12.9231 19.6991 12.9231 19.5002V19.3652C13.5336 19.1852 14.0468 18.8366 14.373 18.3804C14.6993 17.9241 14.8177 17.3892 14.7078 16.8692C14.5978 16.3491 14.2663 15.877 13.7714 15.5354C13.2764 15.1938 12.6494 15.0044 12 15.0003C11.7552 15.0003 11.5204 14.9213 11.3473 14.7806C11.1742 14.64 11.0769 14.4492 11.0769 14.2503C11.0769 14.0514 11.1742 13.8607 11.3473 13.72C11.5204 13.5794 11.7552 13.5004 12 13.5004Z" fill="#FA8EEF"/>
</svg>
