<svg width="26" height="24" viewBox="0 0 26 24" fill="none" xmlns="http://www.w3.org/2000/svg">
<path d="M10.75 11.5601H15.25C15.67 11.5601 16 11.8901 16 12.3101V19.8101C16 20.2301 15.67 20.5601 15.25 20.5601H10.75C10.33 20.5601 10 20.2301 10 19.8101V12.3101C10 11.8901 10.33 11.5601 10.75 11.5601Z" stroke="#DB7A7A" stroke-width="1.5" stroke-miterlimit="10" stroke-linecap="round" stroke-linejoin="round"/>
<path d="M7.94737 22.3189H5.42105C5.06737 22.3189 4.78947 22.041 4.78947 21.6873V9.6873H1L12.6211 1.12316C12.8484 0.958947 13.1516 0.958947 13.3663 1.12316L25 9.6873H21.2105V21.6873C21.2105 22.041 20.92 22.3189 20.5789 22.3189H18.0526" stroke="#DB7A7A" stroke-width="1.5" stroke-miterlimit="10" stroke-linecap="round" stroke-linejoin="round"/>
</svg>
