<svg width="18" height="19" viewBox="0 0 18 19" fill="none" xmlns="http://www.w3.org/2000/svg">
<path d="M9.00005 12.0306C10.4059 12.0306 11.5456 10.8909 11.5456 9.48502C11.5456 8.07914 10.4059 6.93945 9.00005 6.93945C7.59417 6.93945 6.45448 8.07914 6.45448 9.48502C6.45448 10.8909 7.59417 12.0306 9.00005 12.0306Z" stroke="#140F1F" stroke-width="1.5"/>
<path d="M1.92441 8.33055C2.32538 8.58248 2.58338 9.01166 2.58338 9.48513C2.58337 9.95869 2.32537 10.3879 1.92441 10.6398C1.65156 10.8112 1.47577 10.9482 1.35069 11.1112C1.0767 11.4684 0.955775 11.9196 1.01453 12.3659C1.05858 12.7005 1.25626 13.0429 1.65162 13.7277C2.04699 14.4125 2.24467 14.7549 2.51247 14.9604C2.86955 15.2344 3.32084 15.3553 3.76708 15.2966C3.97075 15.2698 4.17729 15.186 4.46212 15.0355C4.88085 14.8142 5.3816 14.8054 5.79175 15.0422C6.20185 15.279 6.44453 15.717 6.46222 16.1902C6.47427 16.5122 6.50504 16.733 6.58366 16.9228C6.7559 17.3386 7.08628 17.669 7.50207 17.8413C7.81399 17.9704 8.20931 17.9704 9.00005 17.9704C9.79079 17.9704 10.1861 17.9704 10.498 17.8413C10.9138 17.669 11.2442 17.3386 11.4165 16.9228C11.495 16.733 11.5258 16.5122 11.5379 16.1903C11.5555 15.717 11.7982 15.279 12.2084 15.0422C12.6185 14.8054 13.1192 14.8143 13.5379 15.0356C13.8228 15.1861 14.0293 15.2698 14.233 15.2967C14.6792 15.3555 15.1305 15.2345 15.4876 14.9605C15.7554 14.755 15.9531 14.4126 16.3485 13.7278C16.5245 13.423 16.6614 13.186 16.7628 12.9872M16.0756 10.6399C15.6747 10.388 15.4167 9.95878 15.4167 9.4853C15.4167 9.01174 15.6747 8.58248 16.0756 8.33055C16.3485 8.15915 16.5242 8.02211 16.6493 7.85911C16.9233 7.50204 17.0442 7.05074 16.9855 6.6045C16.9414 6.26983 16.7437 5.92743 16.3483 5.24265C15.953 4.55786 15.7553 4.21547 15.4875 4.00998C15.1304 3.73598 14.6791 3.61506 14.2329 3.6738C14.0292 3.70062 13.8227 3.78434 13.5379 3.93489C13.1191 4.1562 12.6184 4.16502 12.2083 3.92821C11.7982 3.69143 11.5555 3.25342 11.5379 2.78022C11.5258 2.4582 11.495 2.23744 11.4165 2.04761C11.2442 1.63179 10.9138 1.30142 10.498 1.12918C10.1861 1 9.79079 1 9.00005 1C8.20931 1 7.81399 1 7.50207 1.12918C7.08628 1.30142 6.7559 1.63179 6.58366 2.04761C6.50504 2.23742 6.47427 2.45817 6.46222 2.78015C6.44452 3.25339 6.20184 3.69143 5.79171 3.92821C5.38159 4.165 4.88088 4.15615 4.4622 3.93487C4.17733 3.78431 3.97078 3.70058 3.76709 3.67376C3.32085 3.61502 2.86956 3.73594 2.51248 4.00994C2.24468 4.21543 2.047 4.55783 1.65163 5.24261C1.47562 5.54747 1.33879 5.78447 1.23725 5.98314" stroke="#140F1F" stroke-width="1.5" stroke-linecap="round"/>
</svg>
