<svg width="18" height="21" viewBox="0 0 18 21" fill="none" xmlns="http://www.w3.org/2000/svg">
<path d="M6.33333 10.5998C6.33333 12.0725 5.13942 13.2664 3.66667 13.2664C2.19391 13.2664 1 12.0725 1 10.5998C1 9.12703 2.19391 7.93311 3.66667 7.93311C5.13942 7.93311 6.33333 9.12703 6.33333 10.5998Z" stroke="#1C274C" stroke-width="1.5"/>
<path d="M11.6667 4.7334L6.33337 8.46673" stroke="#1C274C" stroke-width="1.5" stroke-linecap="round"/>
<path d="M11.6667 16.4667L6.33337 12.7334" stroke="#1C274C" stroke-width="1.5" stroke-linecap="round"/>
<path d="M17 17.5334C17 19.0061 15.8061 20.2 14.3334 20.2C12.8606 20.2 11.6667 19.0061 11.6667 17.5334C11.6667 16.0606 12.8606 14.8667 14.3334 14.8667C15.8061 14.8667 17 16.0606 17 17.5334Z" stroke="#1C274C" stroke-width="1.5"/>
<path d="M17 3.66667C17 5.13942 15.8061 6.33333 14.3334 6.33333C12.8606 6.33333 11.6667 5.13942 11.6667 3.66667C11.6667 2.19391 12.8606 1 14.3334 1C15.8061 1 17 2.19391 17 3.66667Z" stroke="#1C274C" stroke-width="1.5"/>
</svg>
