<svg width="26" height="26" viewBox="0 0 26 26" fill="none" xmlns="http://www.w3.org/2000/svg">
<path d="M20.8519 24.4705C22.1729 24.4705 23.2437 23.3997 23.2437 22.0787C23.2437 20.7577 22.1729 19.6868 20.8519 19.6868C19.5309 19.6868 18.46 20.7577 18.46 22.0787C18.46 23.3997 19.5309 24.4705 20.8519 24.4705Z" stroke="#4E7EF9" stroke-width="1.8" stroke-linecap="round" stroke-linejoin="round"/>
<path d="M1 1.06325C1 1.06325 6.54908 0.991499 5.78369 5.84694L4.95857 10.7024C4.83621 11.2846 4.84821 11.887 4.99383 12.4639C5.13943 13.0407 5.41477 13.5767 5.79879 14.0312C6.18283 14.4855 6.66548 14.8462 7.20998 15.086C7.75448 15.3256 8.34648 15.4379 8.94093 15.4144H18.5083C19.8333 15.375 21.1057 14.8877 22.118 14.0319C23.1301 13.1761 23.8223 12.0023 24.0813 10.7024L24.9066 5.78716C25.0372 5.19843 25.0307 4.58754 24.8878 4.00167C24.7448 3.41581 24.469 2.87064 24.0819 2.40831C23.6947 1.94596 23.2064 1.57882 22.6547 1.33523C22.103 1.09165 21.5026 0.978152 20.9001 1.00347H10.4956" stroke="#4E7EF9" stroke-width="1.8" stroke-linecap="round" stroke-linejoin="round"/>
<path d="M8.8927 24.4705C10.2137 24.4705 11.2845 23.3997 11.2845 22.0787C11.2845 20.7577 10.2137 19.6868 8.8927 19.6868C7.57172 19.6868 6.50085 20.7577 6.50085 22.0787C6.50085 23.3997 7.57172 24.4705 8.8927 24.4705Z" stroke="#4E7EF9" stroke-width="1.8" stroke-linecap="round" stroke-linejoin="round"/>
</svg>
