<svg width="26" height="26" viewBox="0 0 26 26" fill="none" xmlns="http://www.w3.org/2000/svg">
<path d="M1.85539 12.064V17.452C1.85539 22.84 4.09301 25 9.67464 25H16.3751C21.9567 25 24.1943 22.84 24.1943 17.452V12.064" stroke="#0B71F1" stroke-width="1.5" stroke-linecap="round" stroke-linejoin="round"/>
<path d="M13.0311 13C15.306 13 16.9842 11.212 16.7605 9.016L15.94 1H10.1346L9.30171 9.016C9.07795 11.212 10.7562 13 13.0311 13Z" stroke="#0B71F1" stroke-width="1.5" stroke-linecap="round" stroke-linejoin="round"/>
<path d="M20.8752 13C23.3863 13 25.2261 11.032 24.9775 8.62L24.6294 5.32C24.1819 2.2 22.9388 1 19.6818 1H15.8903L16.7604 9.412C16.9718 11.392 18.824 13 20.8752 13Z" stroke="#0B71F1" stroke-width="1.5" stroke-linecap="round" stroke-linejoin="round"/>
<path d="M5.12481 13C7.17597 13 9.02822 11.392 9.22712 9.412L9.50061 6.76L10.0973 1H6.30578C3.04881 1 1.80567 2.2 1.35815 5.32L1.02251 8.62C0.773882 11.032 2.6137 13 5.12481 13Z" stroke="#0B71F1" stroke-width="1.5" stroke-linecap="round" stroke-linejoin="round"/>
<path d="M13.0311 19C10.9551 19 9.92326 19.996 9.92326 22V25H16.1389V22C16.1389 19.996 15.1071 19 13.0311 19Z" stroke="#0B71F1" stroke-width="1.5" stroke-linecap="round" stroke-linejoin="round"/>
</svg>
